<?xml version="1.0" standalone="no"?><!DOCTYPE svg PUBLIC "-//W3C//DTD SVG 1.1//EN" "http://www.w3.org/Graphics/SVG/1.1/DTD/svg11.dtd"><svg t="1538279350856" class="icon" style="" viewBox="0 0 1024 1024" version="1.1" xmlns="http://www.w3.org/2000/svg" p-id="2765" xmlns:xlink="http://www.w3.org/1999/xlink" width="128" height="128"><defs><style type="text/css"></style></defs><path d="M289.689798 122.957403h-55.577806c-61.135382 0-111.154589 50.02023-111.154589 111.154589v611.352799c0 61.135382 50.02023 111.154589 111.154589 111.154589h555.774993c61.135382 0 111.154589-50.02023 111.154589-111.154589V234.111992c0-61.135382-50.02023-111.154589-111.154589-111.154589h-50.020231v55.577806h50.020231c33.346479 0 55.577806 22.231327 55.577806 55.577806v611.352799c0 27.788903-22.231327 55.577806-55.577806 55.577806H234.111992c-33.346479 0-55.577806-22.231327-55.577806-55.577806v-611.353822c0-27.788903 22.231327-55.577806 55.577806-55.577806h55.577806v-55.576783z m111.15459 55.576783h222.310201v-55.577806H400.844388v55.577806z m-55.576783-55.576783c0-33.346479 27.788903-55.577806 55.577806-55.577806h222.310201c27.788903 0 55.577806 22.231327 55.577807 55.577806v55.577806c0 33.346479-27.788903 55.577806-55.577807 55.577806H400.844388c-27.788903 0-55.577806-22.231327-55.577807-55.577806v-55.577806z m31.918967 503.68359h55.577806v-55.577806h-55.577806v55.577806z m222.310201 0h55.577806v-55.577806h-55.577806v55.577806z m170.314991-101.912087l-56.018852-43.070958-28.537963-122.722043H358.316805l-36.767392 128.027886-57.192583 36.140105V708.816574h85.041862v54.807257h55.577806V708.816574h222.310202v54.807257h55.577806V708.816574h86.948281V524.728906zM641.119753 414.513712l13.402241 57.633628H383.629307l16.550955-57.633628h240.939491z m73.115228 238.725056h-394.300345v-99.509365l41.147143-26.004257H682.528861l31.707143 24.379247v101.134375z" p-id="2766" fill="#dbdbdb"></path></svg>