<?xml version="1.0" standalone="no"?><!DOCTYPE svg PUBLIC "-//W3C//DTD SVG 1.1//EN" "http://www.w3.org/Graphics/SVG/1.1/DTD/svg11.dtd"><svg t="1535097583410" class="icon" style="" viewBox="0 0 1024 1024" version="1.1" xmlns="http://www.w3.org/2000/svg" p-id="6859" xmlns:xlink="http://www.w3.org/1999/xlink" width="128" height="128"><defs><style type="text/css"></style></defs><path d="M785.664 486.272c-127.616 0-231.072 103.424-231.072 231.072s103.424 231.072 231.072 231.072 231.072-103.424 231.072-231.072-103.424-231.072-231.072-231.072z m0 385.056a154.08 154.08 0 0 1-154.016-154.016c0-85.024 68.992-154.048 154.016-154.048s154.016 69.024 154.016 154.048a154.08 154.08 0 0 1-154.016 154.016z" p-id="6860" fill="#91abd9"></path><path d="M980.704 89.536H41.344c-18.816 0-34.112 15.264-34.112 34.112v655.712h0.352a28.704 28.704 0 0 0 28.608 26.464c0.576 0 1.248 0 1.792-0.096v0.096h534.24a227.584 227.584 0 0 1-17.024-71.808H80.032v-177.664h116.064l95.808-93.312a55.36 55.36 0 0 0 43.392 3.104l60.608 83.232a55.168 55.168 0 0 0 109.568 11.008l162.432-160.736c12.992 6.976 27.968 10.88 43.904 10.88a93.216 93.216 0 0 0 93.184-93.216 92.48 92.48 0 0 0-22.4-59.968 514.048 514.048 0 0 1-33.664 49.632c0.544 2.592 1.568 5.024 1.568 7.776 0 21.76-17.728 39.488-39.552 39.488a39.552 39.552 0 0 1-39.424-39.488c0-4.288 1.184-8.224 2.432-12.064a496.416 496.416 0 0 1-31.488-47.104 92.48 92.48 0 0 0-23.872 61.76c0 15.488 3.808 30.208 10.56 42.976l-151.904 150.272a54.688 54.688 0 0 0-44.192-4.128l-60.992-83.808a55.104 55.104 0 0 0-54.528-63.84c-30.496 0-55.2 24.64-55.2 55.168v0.928l-88.48 86.112H80.384V184.768a20.8 20.8 0 0 1 20.768-20.768h527.456a91.232 91.232 0 1 1 168.768 0h123.68a20.8 20.8 0 0 1 20.704 20.768v362.144a230.72 230.72 0 0 1 72.992 140.128V123.648a34.016 34.016 0 0 0-34.048-34.112z" p-id="6861" fill="#91abd9"></path><path d="M687.2 192.352c0-3.36 0.672-6.72 1.92-9.888a26.24 26.24 0 0 1 23.968-15.936 25.856 25.856 0 0 1 18.272 44.128 25.184 25.184 0 0 1-8.384 5.536 25.6 25.6 0 0 1-19.808 0 25.856 25.856 0 0 1-14.048-13.952 25.92 25.92 0 0 1-1.92-9.888" p-id="6862" fill="#91abd9"></path><path d="M713.024 125.696a71.936 71.936 0 0 0-71.936 71.968c0 39.744 71.936 119.968 71.936 119.968s71.968-80.192 71.968-119.968a72 72 0 0 0-71.968-71.968z m0 101.952a35.968 35.968 0 1 1-0.064-71.936 35.968 35.968 0 0 1 0.064 71.936z" p-id="6863" fill="#91abd9"></path><path d="M786.016 642.272v77.6a8.64 8.64 0 1 0 17.28 0v-77.6a8.672 8.672 0 0 0-8.672-8.672 8.704 8.704 0 0 0-8.608 8.672z m117.856 106.24l-43.232-43.264a8.64 8.64 0 0 0-12.192 12.192l37.12 37.184-36.992 36.96a8.704 8.704 0 0 0 0 12.256 8.672 8.672 0 0 0 12.192 0l43.072-43.168a8.448 8.448 0 0 0 0.032-12.16z" p-id="6864" fill="#91abd9"></path><path d="M757.28 648.32l37.088-36.992 37.12 37.152c1.664 1.664 3.84 2.496 6.112 2.496a8.512 8.512 0 0 0 6.048-2.496 8.736 8.736 0 0 0 0-12.224l-43.2-43.264c-1.664-1.6-3.808-2.528-6.112-2.528s-4.512 0.928-6.08 2.528l-43.168 43.136a8.8 8.8 0 0 0 0 12.288 8.736 8.736 0 0 0 12.192-0.096z m-14.432 132.032a8.64 8.64 0 0 0-8.608 8.608v34.528a8.608 8.608 0 1 0 17.248 0v-34.528a8.672 8.672 0 0 0-8.64-8.608z m51.808 0a8.64 8.64 0 0 0-8.608 8.608v34.528a8.64 8.64 0 1 0 17.28 0v-34.528a8.64 8.64 0 0 0-8.672-8.608zM864.096 754.464a8.64 8.64 0 0 0-8.608-8.608c-1.408 0-137.216 0-142.688-0.064a32.416 32.416 0 1 1 32.672-22.528 8.672 8.672 0 0 0 5.6 10.848 8.672 8.672 0 0 0 10.848-5.632 49.76 49.76 0 1 0-83.328 19.296 49.28 49.28 0 0 0 33.536 15.264c0.992 0.096 141.888 0.096 143.328 0.096a8.64 8.64 0 0 0 8.64-8.672z" p-id="6865" fill="#91abd9"></path></svg>