<?xml version="1.0" standalone="no"?><!DOCTYPE svg PUBLIC "-//W3C//DTD SVG 1.1//EN" "http://www.w3.org/Graphics/SVG/1.1/DTD/svg11.dtd"><svg t="1535097714014" class="icon" style="" viewBox="0 0 1024 1024" version="1.1" xmlns="http://www.w3.org/2000/svg" p-id="8025" xmlns:xlink="http://www.w3.org/1999/xlink" width="128" height="128"><defs><style type="text/css"></style></defs><path d="M132.154 891.846V77.891H77.888v868.22h868.22v-54.266z" p-id="8026" fill="#91abd9"></path><path d="M230.593 571.244c7.084 7.065 18.529 7.065 25.561 0l166.309-166.291 166.269 166.291c1.767 1.765 3.818 3.109 5.988 3.956 6.553 2.65 14.307 1.345 19.59-3.956L795.826 389.71l93.777 93.776v-272.5H617.118l101.975 101.991-117.571 117.571-166.273-166.291c-0.3-0.284-0.688-0.389-0.989-0.653-3.41-2.969-7.559-4.646-11.817-4.627a18.061 18.061 0 0 0-12.804 5.3L179.442 494.49c-7.065 7.065-7.065 18.513 0 25.578l51.153 51.172zM230.593 625.509l-29.834-29.852v262.628h90.438V590.464l-35.045 35.045c-7.03 7.065-18.478 7.065-25.561 0z" p-id="8027" fill="#91abd9"></path><path d="M350.356 531.325v326.959h90.441V477.555l-18.334-18.335zM499.969 536.764v321.521h90.438V626.64c-0.529-0.425-1.183-0.637-1.678-1.13l-88.762-88.745zM649.565 590.253v268.032h90.438v-358.49l-74.542 74.561zM889.601 858.284v-320.53l-90.441-90.438v410.969z" p-id="8028" fill="#91abd9"></path></svg>