<?xml version="1.0" standalone="no"?><!DOCTYPE svg PUBLIC "-//W3C//DTD SVG 1.1//EN" "http://www.w3.org/Graphics/SVG/1.1/DTD/svg11.dtd"><svg t="1535097934977" class="icon" style="" viewBox="0 0 1024 1024" version="1.1" xmlns="http://www.w3.org/2000/svg" p-id="11428" xmlns:xlink="http://www.w3.org/1999/xlink" width="128" height="128"><defs><style type="text/css"></style></defs><path d="M1002.854 824.526c2.74 9.012 4.7 20.375 6.267 33.692 1.57 12.928 2.353 26.643 2.353 39.962 0 13.32-0.783 26.25-3.136 38.006-1.956 11.752-5.092 20.766-9.011 26.639-2.742 3.919-10.186 7.837-23.116 11.755-12.928 3.918-28.992 7.442-47.798 10.578-19.197 3.525-40.356 6.27-63.467 9.403s-46.23 5.486-69.735 7.446c-23.508 1.957-45.841 3.524-67.781 5.092-21.547 1.174-40.746 1.957-57.201 1.957-16.456 0-35.259-0.783-56.809-1.957-21.159-1.57-43.488-3.135-66.601-5.092-23.117-1.959-45.841-4.313-68.171-6.271-22.332-2.35-43.097-5.093-61.901-7.837-18.806-3.135-34.478-5.879-47.406-9.011-12.928-3.135-20.764-5.878-24.29-8.619-5.092-4.702-9.402-18.414-12.928-41.53-3.135-23.116-2.35-52.891 3.134-88.935 3.135-21.155 11.755-36.828 25.073-47.404 13.324-10.579 29.386-19.197 47.8-25.858 18.411-6.661 37.219-12.146 56.808-17.24 19.59-5.094 36.829-12.147 51.716-22.334 11.753-7.836 20.764-15.279 27.032-21.547 6.27-6.661 10.578-13.321 13.713-19.59 3.134-6.66 4.31-13.71 4.31-20.766 0-7.051-0.393-15.279-1.178-24.682-1.568-12.927-5.878-23.507-13.711-31.342-7.837-7.442-16.456-14.887-25.858-22.331-4.701-3.919-8.619-9.403-12.146-16.847-3.526-7.051-6.659-14.495-9.403-21.548-2.742-7.836-5.093-16.845-7.837-26.638-3.919-1.568-7.837-3.526-11.755-5.878-3.525-2.741-6.659-6.66-10.184-11.753-3.917-5.092-7.053-12.538-10.185-21.547-3.525-9.012-4.702-18.023-3.918-26.25 0.783-8.227 2.35-14.888 5.094-20.373 2.74-6.659 6.267-12.538 10.575-17.631-0.39-21.154 0.393-42.703 3.135-64.251 2.741-18.413 6.659-37.611 12.146-57.982 5.485-19.982 14.105-38.788 26.249-56.026 10.578-15.671 22.332-28.601 35.652-38.395 12.928-9.796 26.639-17.631 40.352-23.117 13.715-5.484 27.816-9.403 41.532-11.362 13.71-1.957 27.031-3.133 39.567-3.133 33.693 0 63.467 7.051 90.111 20.764 26.25 13.713 45.838 28.601 58.377 44.27 14.495 18.023 25.074 37.611 32.127 59.944 7.051 21.939 11.751 42.705 15.276 61.51 3.525 22.332 4.703 44.663 3.921 66.994 3.133 2.742 6.27 6.27 9.011 10.579 1.958 3.918 3.917 9.012 5.484 15.281 1.567 6.269 1.962 14.104 0.393 23.115-1.567 11.755-3.918 21.546-7.838 28.601-3.918 7.051-7.837 12.928-11.752 16.849-4.702 4.701-9.793 7.442-15.67 9.011-2.744 9.793-5.095 18.806-7.838 26.639-2.742 7.053-5.878 14.495-9.795 21.547-3.918 7.051-8.228 12.538-12.538 15.671-5.092 4.702-10.184 8.619-14.495 11.753-4.309 3.526-7.836 6.66-11.362 10.185-3.526 3.526-6.269 7.837-8.227 12.146-2.351 4.701-4.31 10.184-5.484 16.847-1.175 8.619-1.959 17.238-1.567 26.249 0.391 9.011 2.35 17.631 6.269 25.858 3.918 8.619 10.183 16.849 19.196 24.683 9.011 7.836 21.156 14.888 37.22 20.764 13.713 5.878 28.992 10.97 45.838 15.279 16.847 4.31 32.909 9.405 48.579 15.281 15.671 5.877 29.387 13.713 41.532 22.724 12.142 11.758 20.76 23.513 26.248 38.008M475.905 642.738c-1.567 7.445-3.134 12.93-5.093 16.849s-6.659 8.228-13.711 12.928c-17.239 10.578-35.652 19.196-55.241 25.467-19.98 6.659-38.787 13.711-56.809 21.547-18.020 7.837-33.692 18.412-47.404 31.342-13.321 12.927-21.94 30.951-25.073 54.851-1.175 7.445-1.959 14.496-2.353 21.155-0.39 7.051-0.783 13.32-1.565 19.197-0.785 1.174-1.567 2.351-1.959 3.524-0.39 1.178-1.174 1.961-1.959 3.526-25.858-1.958-51.714-4.309-77.963-7.050-26.25-2.741-50.54-5.878-72.48-9.011-21.94-3.526-40.746-6.662-56.026-9.796-15.281-3.132-24.68-6.658-28.601-9.793-5.877-4.701-10.185-18.413-13.321-41.529-3.133-23.116-1.957-52.891 3.526-89.719 3.135-20.373 11.755-36.044 25.075-47.013 13.711-10.579 29.384-19.59 48.187-25.468 18.413-6.27 37.221-12.143 56.809-17.239 19.591-5.092 36.829-12.538 51.716-21.546 11.756-7.839 20.766-15.281 27.425-21.549 6.267-6.659 10.575-13.319 13.32-20.372 2.742-7.053 3.918-14.106 3.918-21.155 0-7.053-0.391-15.282-1.175-23.508-1.175-13.32-5.877-23.508-13.32-31.342-7.443-7.445-16.062-15.281-25.074-23.116-5.093-3.526-9.795-8.619-13.321-15.671-3.526-7.051-6.659-14.495-9.403-21.546-2.742-7.837-5.093-16.849-7.837-26.639-3.918-1.57-7.837-3.526-11.753-5.879-3.525-2.742-6.661-6.659-10.186-11.752-3.526-5.093-7.051-12.539-10.185-21.547-3.135-9.011-4.702-18.023-3.917-25.858 0.782-8.226 2.35-15.281 5.092-21.156 2.741-7.050 6.269-13.319 10.579-17.629-0.786-21.155 0.39-42.703 3.134-64.252 2.742-18.022 7.051-36.827 12.928-57.201 5.876-20.375 14.889-38.784 26.638-55.24 10.579-15.671 22.334-28.6 35.653-38.395 12.927-9.793 26.248-17.629 39.962-23.114 13.319-5.486 27.032-9.404 41.135-11.363 13.711-1.958 27.425-3.133 40.356-3.133 32.909 0 62.685 7.051 88.935 20.764s46.231 28.601 59.551 44.662c8.619 10.971 14.103 21.548 16.062 30.951 2.349 9.404 5.485 20.764 9.402 33.303-12.537 7.051-25.857 18.022-39.961 32.126-14.106 14.105-26.25 28.601-37.219 43.097-12.928 18.411-23.115 38.787-29.775 61.116-6.659 22.332-11.362 43.097-14.889 62.296-3.134 23.114-4.7 45.837-4.7 68.953-5.093 5.877-9.404 12.538-11.755 19.588-2.744 6.661-4.309 14.498-5.093 23.117-0.783 9.010 0.785 18.413 3.917 28.992 3.526 11.362 7.051 19.981 10.579 25.465 3.918 5.878 7.445 10.579 10.972 13.714 3.916 3.917 7.837 6.66 11.752 7.837 2.744 10.578 5.093 20.372 7.837 29.773 2.741 7.836 5.877 16.061 9.403 24.29 3.919 8.227 8.228 14.106 13.321 18.414 4.702 3.918 8.228 7.050 10.579 9.792 2.742 2.744 4.702 5.094 6.659 7.446 1.568 2.35 2.742 5.484 3.135 9.402-0.782 2.35 0 7.442 1.568 14.103z" p-id="11429" fill="#fff"></path></svg>